<?xml version="1.0" encoding="UTF-8" ?>
<!DOCTYPE svg PUBLIC "-//W3C//DTD SVG 1.1//EN" "http://www.w3.org/Graphics/SVG/1.1/DTD/svg11.dtd">
<svg width="762pt" height="603pt" viewBox="0 0 762 603" version="1.1" xmlns="http://www.w3.org/2000/svg">
<path fill="#000000" opacity="1.00" d=" M 410.97 53.97 C 423.15 21.01 463.54 4.65 495.88 16.18 C 537.01 33.63 578.24 50.83 619.10 68.89 C 645.74 81.23 659.72 112.92 654.75 141.30 C 648.90 164.42 635.77 184.93 628.79 207.62 C 643.27 213.88 658.16 219.33 672.14 226.71 C 665.65 238.31 662.19 251.33 656.03 263.10 C 653.91 262.49 651.79 261.89 649.67 261.30 C 660.60 292.59 663.52 325.79 662.22 358.77 C 695.03 367.44 727.18 378.59 758.25 392.25 C 715.65 412.16 671.43 428.65 627.05 444.01 C 577.44 499.98 500.62 520.97 428.44 525.44 C 348.19 529.51 260.74 519.29 194.97 469.03 C 157.29 440.97 135.61 395.30 132.69 348.92 C 112.38 362.25 93.47 377.70 73.31 391.29 C 62.99 376.77 52.02 362.71 41.94 348.02 C 64.15 335.58 86.44 323.21 109.05 311.51 C 76.06 311.23 43.16 316.62 10.10 317.14 C 8.32 298.80 8.95 280.33 9.17 261.94 C 41.29 264.89 73.35 269.92 105.25 274.87 C 78.38 258.16 50.66 242.71 23.41 226.62 C 22.05 225.75 20.33 224.39 21.81 222.74 C 30.07 209.18 36.60 194.67 43.50 180.40 C 44.05 178.26 46.54 179.10 47.71 180.20 C 81.42 208.83 114.72 238.01 148.74 266.25 C 158.01 253.63 142.80 246.23 139.99 234.94 C 138.10 225.60 133.75 214.18 139.89 205.57 C 149.70 213.93 161.01 221.07 173.64 224.17 C 211.98 170.43 270.75 134.13 332.76 113.88 C 338.64 105.86 340.39 95.56 345.18 86.87 C 359.86 92.38 373.75 101.38 389.48 102.92 C 397.78 87.22 403.23 70.01 410.97 53.97 M 433.41 57.25 L 432.74 57.42 C 429.31 65.61 425.57 73.68 422.39 81.98 C 418.49 91.48 413.78 100.71 410.98 110.62 C 477.52 138.24 543.60 166.99 609.98 194.99 C 613.77 186.07 617.74 177.21 621.15 168.13 C 624.96 160.17 627.99 151.87 632.07 144.04 L 631.81 143.29 C 640.15 121.25 626.93 93.99 604.87 86.14 C 568.48 69.90 531.43 55.19 495.01 39.04 C 473.66 27.43 445.03 35.90 433.41 57.25 M 343.29 133.26 C 285.54 150.10 232.14 183.63 194.76 231.10 C 196.38 231.81 198.01 232.52 199.65 233.20 C 238.12 243.91 278.10 247.66 316.57 258.41 C 352.90 268.11 395.46 287.17 404.00 327.99 C 384.40 299.93 353.78 279.97 319.71 275.30 C 273.30 267.12 225.78 263.63 181.02 248.02 C 189.07 262.97 205.55 269.76 219.92 277.09 C 247.11 287.80 275.58 295.25 304.48 299.55 C 259.84 301.59 211.60 296.49 174.12 269.85 C 181.80 282.71 195.30 290.40 208.58 296.43 C 244.48 310.51 283.39 314.35 321.50 317.20 C 276.29 323.31 227.63 322.06 185.67 302.28 C 193.81 313.54 206.47 320.44 219.51 324.48 C 256.60 336.47 296.07 335.79 334.49 338.29 C 298.24 345.44 260.58 346.48 224.20 339.81 C 203.25 335.03 179.42 327.60 169.13 306.85 C 165.74 301.84 167.43 294.25 162.04 290.65 C 152.11 320.28 151.02 352.85 160.24 382.79 C 170.74 422.11 201.67 452.51 236.73 471.27 C 292.31 499.72 356.21 507.01 417.85 504.90 C 475.89 501.28 536.33 490.61 584.11 455.07 C 571.81 456.29 559.17 456.79 547.17 453.31 C 529.18 449.49 512.01 437.06 508.33 418.17 C 505.11 389.26 523.65 357.95 552.81 350.86 C 581.77 343.66 612.13 348.11 640.94 354.03 C 637.56 340.93 648.48 313.94 634.03 308.83 C 634.01 317.90 633.98 326.96 633.90 336.03 C 625.83 336.10 617.76 335.78 609.73 335.18 C 610.22 326.58 610.37 317.93 609.68 309.34 C 600.49 308.38 591.23 309.07 582.02 309.04 C 576.67 309.01 571.34 308.99 566.01 308.98 C 565.96 300.99 565.96 293.00 566.01 285.02 C 588.71 284.83 611.42 285.26 634.12 284.83 C 631.35 272.73 628.17 259.81 621.68 249.26 C 545.76 215.96 468.92 184.57 393.00 151.20 L 392.18 151.36 C 384.12 148.25 376.40 143.68 368.22 141.26 C 364.78 139.43 361.22 137.73 357.42 136.81 L 358.26 136.71 C 353.42 135.12 348.55 130.55 343.29 133.26 M 563.13 365.00 C 542.46 367.71 525.73 386.01 524.70 406.75 C 519.77 429.15 547.16 439.35 565.03 439.99 C 610.02 436.96 651.73 417.89 693.50 402.39 C 681.13 403.90 668.58 403.84 656.35 406.34 C 627.23 409.85 593.87 406.13 568.08 422.10 C 565.28 422.21 562.40 422.09 559.65 421.71 C 560.36 408.72 575.89 404.93 586.01 402.03 C 628.01 392.61 671.33 393.60 714.09 391.44 C 665.47 375.98 614.93 357.69 563.13 365.00 Z" />
<path fill="#ed7c31" opacity="1.00" d=" M 433.41 57.25 C 445.03 35.90 473.66 27.43 495.01 39.04 C 531.43 55.19 568.48 69.90 604.87 86.14 C 626.93 93.99 640.15 121.25 631.81 143.29 C 629.47 135.71 625.65 128.70 621.29 122.11 C 625.54 116.77 623.50 109.90 618.20 105.84 C 605.38 95.95 588.23 87.94 571.80 92.99 C 541.93 80.26 512.10 67.39 482.14 54.87 C 466.28 47.94 448.93 51.42 433.41 57.25 Z" />
<path fill="#d6562b" opacity="1.00" d=" M 433.41 57.25 C 448.93 51.42 466.28 47.94 482.14 54.87 C 512.10 67.39 541.93 80.26 571.80 92.99 C 571.01 97.02 569.65 101.64 573.12 104.83 C 585.09 117.70 603.72 125.34 621.29 122.11 C 625.65 128.70 629.47 135.71 631.81 143.29 L 632.07 144.04 C 627.99 151.87 624.96 160.17 621.15 168.13 C 555.31 138.59 487.45 112.88 422.39 81.98 C 425.57 73.68 429.31 65.61 432.74 57.42 L 433.41 57.25 Z" />
<path fill="#b55232" opacity="1.00" d=" M 410.98 110.62 C 413.78 100.71 418.49 91.48 422.39 81.98 C 487.45 112.88 555.31 138.59 621.15 168.13 C 617.74 177.21 613.77 186.07 609.98 194.99 C 543.60 166.99 477.52 138.24 410.98 110.62 Z" />
<path fill="#ffffff" opacity="1.00" d=" M 571.80 92.99 C 588.23 87.94 605.38 95.95 618.20 105.84 C 623.50 109.90 625.54 116.77 621.29 122.11 C 603.72 125.34 585.09 117.70 573.12 104.83 C 569.65 101.64 571.01 97.02 571.80 92.99 Z" />
<path fill="#e5d3bd" opacity="1.00" d=" M 343.29 133.26 C 348.55 130.55 353.42 135.12 358.26 136.71 L 357.42 136.81 C 335.49 140.33 313.78 147.06 293.87 156.97 C 318.13 149.38 343.25 145.58 368.22 141.26 C 376.40 143.68 384.12 148.25 392.18 151.36 C 322.28 161.20 255.30 189.81 199.65 233.20 C 198.01 232.52 196.38 231.81 194.76 231.10 C 232.14 183.63 285.54 150.10 343.29 133.26 Z" />
<path fill="#ffffff" opacity="1.00" d=" M 293.87 156.97 C 313.78 147.06 335.49 140.33 357.42 136.81 C 361.22 137.73 364.78 139.43 368.22 141.26 C 343.25 145.58 318.13 149.38 293.87 156.97 Z" />
<path fill="#c7b29e" opacity="1.00" d=" M 392.18 151.36 L 393.00 151.20 C 468.92 184.57 545.76 215.96 621.68 249.26 C 628.17 259.81 631.35 272.73 634.12 284.83 C 611.42 285.26 588.71 284.83 566.01 285.02 C 565.96 293.00 565.96 300.99 566.01 308.98 C 571.34 308.99 576.67 309.01 582.02 309.04 C 581.99 317.67 582.00 326.31 582.08 334.96 C 591.29 334.99 600.52 334.87 609.73 335.18 C 617.76 335.78 625.83 336.10 633.90 336.03 C 633.98 326.96 634.01 317.90 634.03 308.83 C 648.48 313.94 637.56 340.93 640.94 354.03 C 612.13 348.11 581.77 343.66 552.81 350.86 C 523.65 357.95 505.11 389.26 508.33 418.17 C 512.01 437.06 529.18 449.49 547.17 453.31 C 528.62 465.40 505.65 469.11 484.32 473.52 C 447.58 480.81 421.33 443.98 385.92 442.94 C 371.96 442.21 361.31 453.98 347.54 454.47 C 326.03 455.82 310.72 435.48 289.54 435.37 C 281.81 437.25 274.70 442.86 266.23 440.45 C 254.74 434.30 248.16 422.23 237.59 414.95 C 225.72 407.78 211.23 421.50 199.92 413.12 C 185.26 404.96 172.90 393.62 160.24 382.79 C 151.02 352.85 152.11 320.28 162.04 290.65 C 167.43 294.25 165.74 301.84 169.13 306.85 C 179.42 327.60 203.25 335.03 224.20 339.81 C 260.58 346.48 298.24 345.44 334.49 338.29 C 296.07 335.79 256.60 336.47 219.51 324.48 C 206.47 320.44 193.81 313.54 185.67 302.28 C 227.63 322.06 276.29 323.31 321.50 317.20 C 283.39 314.35 244.48 310.51 208.58 296.43 C 195.30 290.40 181.80 282.71 174.12 269.85 C 211.60 296.49 259.84 301.59 304.48 299.55 C 275.58 295.25 247.11 287.80 219.92 277.09 C 205.55 269.76 189.07 262.97 181.02 248.02 C 225.78 263.63 273.30 267.12 319.71 275.30 C 353.78 279.97 384.40 299.93 404.00 327.99 C 395.46 287.17 352.90 268.11 316.57 258.41 C 278.10 247.66 238.12 243.91 199.65 233.20 C 255.30 189.81 322.28 161.20 392.18 151.36 M 342.80 172.54 C 335.18 173.93 321.56 178.40 326.24 188.44 C 338.79 196.88 358.60 192.97 368.98 182.80 C 373.45 168.85 350.70 171.53 342.80 172.54 M 292.73 189.47 C 286.12 190.92 277.45 195.22 277.06 202.73 C 285.61 208.96 300.27 202.46 304.78 193.61 C 306.05 187.26 296.24 188.82 292.73 189.47 M 356.31 201.28 C 364.86 207.82 377.14 206.98 386.02 201.51 C 387.86 187.42 354.26 187.47 356.31 201.28 M 321.43 199.59 C 314.84 200.68 301.50 204.22 306.15 212.79 C 314.32 216.31 326.02 213.60 332.16 206.92 C 336.09 200.27 326.18 198.18 321.43 199.59 M 455.01 288.01 C 454.96 296.00 454.97 303.99 455.01 311.99 C 456.76 311.99 460.26 312.00 462.01 312.00 C 461.96 320.66 461.96 329.32 462.01 337.98 C 474.00 338.04 486.00 338.03 498.01 337.98 L 498.01 338.98 C 506.00 339.04 513.98 339.02 521.99 338.98 C 521.99 330.00 522.00 321.02 522.01 312.05 C 525.04 312.03 527.91 311.95 530.99 311.96 C 531.03 303.98 531.02 296.00 530.99 288.03 C 505.66 287.97 480.34 287.99 455.01 288.01 Z" />
<path fill="#937963" opacity="1.00" d=" M 342.80 172.54 C 350.70 171.53 373.45 168.85 368.98 182.80 C 358.60 192.97 338.79 196.88 326.24 188.44 C 321.56 178.40 335.18 173.93 342.80 172.54 Z" />
<path fill="#937963" opacity="1.00" d=" M 292.73 189.47 C 296.24 188.82 306.05 187.26 304.78 193.61 C 300.27 202.46 285.61 208.96 277.06 202.73 C 277.45 195.22 286.12 190.92 292.73 189.47 Z" />
<path fill="#937963" opacity="1.00" d=" M 356.31 201.28 C 354.26 187.47 387.86 187.42 386.02 201.51 C 377.14 206.98 364.86 207.82 356.31 201.28 Z" />
<path fill="#937963" opacity="1.00" d=" M 321.43 199.59 C 326.18 198.18 336.09 200.27 332.16 206.92 C 326.02 213.60 314.32 216.31 306.15 212.79 C 301.50 204.22 314.84 200.68 321.43 199.59 Z" />
<path fill="#000000" opacity="1.00" d=" M 455.01 288.01 C 480.34 287.99 505.66 287.97 530.99 288.03 C 531.02 296.00 531.03 303.98 530.99 311.96 C 527.91 311.95 525.04 312.03 522.01 312.05 C 522.00 321.02 521.99 330.00 521.99 338.98 C 513.98 339.02 506.00 339.04 498.01 338.98 L 498.01 337.98 C 498.01 329.33 497.99 320.67 497.98 312.02 C 485.99 311.97 474.00 311.98 462.01 312.00 C 460.26 312.00 456.76 311.99 455.01 311.99 C 454.97 303.99 454.96 296.00 455.01 288.01 Z" />
<path fill="#ffffff" opacity="1.00" d=" M 582.02 309.04 C 591.23 309.07 600.49 308.38 609.68 309.34 C 610.37 317.93 610.22 326.58 609.73 335.18 C 600.52 334.87 591.29 334.99 582.08 334.96 C 582.00 326.31 581.99 317.67 582.02 309.04 Z" />
<path fill="#ffffff" opacity="1.00" d=" M 462.01 312.00 C 474.00 311.98 485.99 311.97 497.98 312.02 C 497.99 320.67 498.01 329.33 498.01 337.98 C 486.00 338.03 474.00 338.04 462.01 337.98 C 461.96 329.32 461.96 320.66 462.01 312.00 Z" />
<path fill="#faaf40" opacity="1.00" d=" M 563.13 365.00 C 614.93 357.69 665.47 375.98 714.09 391.44 C 671.33 393.60 628.01 392.61 586.01 402.03 C 575.89 404.93 560.36 408.72 559.65 421.71 C 546.82 419.92 534.76 414.93 524.70 406.75 C 525.73 386.01 542.46 367.71 563.13 365.00 M 558.03 378.88 C 567.53 389.20 586.30 386.63 598.25 380.63 C 593.41 366.91 565.31 367.95 558.03 378.88 Z" />
<path fill="#ffffff" opacity="1.00" d=" M 558.03 378.88 C 565.31 367.95 593.41 366.91 598.25 380.63 C 586.30 386.63 567.53 389.20 558.03 378.88 Z" />
<path fill="#937963" opacity="1.00" d=" M 160.24 382.79 C 172.90 393.62 185.26 404.96 199.92 413.12 C 211.23 421.50 225.72 407.78 237.59 414.95 C 248.16 422.23 254.74 434.30 266.23 440.45 C 274.70 442.86 281.81 437.25 289.54 435.37 C 310.72 435.48 326.03 455.82 347.54 454.47 C 361.31 453.98 371.96 442.21 385.92 442.94 C 421.33 443.98 447.58 480.81 484.32 473.52 C 505.65 469.11 528.62 465.40 547.17 453.31 C 559.17 456.79 571.81 456.29 584.11 455.07 C 536.33 490.61 475.89 501.28 417.85 504.90 C 356.21 507.01 292.31 499.72 236.73 471.27 C 201.67 452.51 170.74 422.11 160.24 382.79 Z" />
<path fill="#f6921e" opacity="1.00" d=" M 656.35 406.34 C 668.58 403.84 681.13 403.90 693.50 402.39 C 651.73 417.89 610.02 436.96 565.03 439.99 C 547.16 439.35 519.77 429.15 524.70 406.75 C 534.76 414.93 546.82 419.92 559.65 421.71 C 562.40 422.09 565.28 422.21 568.08 422.10 C 598.09 421.27 627.31 413.26 656.35 406.34 Z" />
<path fill="#faaf40" opacity="1.00" d=" M 568.08 422.10 C 593.87 406.13 627.23 409.85 656.35 406.34 C 627.31 413.26 598.09 421.27 568.08 422.10 Z" />
</svg>
