<?xml version="1.0" encoding="UTF-8" ?>
<!DOCTYPE svg PUBLIC "-//W3C//DTD SVG 1.1//EN" "http://www.w3.org/Graphics/SVG/1.1/DTD/svg11.dtd">
<svg width="760pt" height="603pt" viewBox="0 0 760 603" version="1.1" xmlns="http://www.w3.org/2000/svg">
<path fill="#000000" opacity="1.00" d=" M 316.81 45.81 C 328.59 23.11 354.64 9.28 379.94 10.93 C 421.56 11.11 463.19 10.91 504.81 11.01 C 537.87 12.40 566.21 41.46 568.01 74.26 C 568.19 86.84 567.86 99.43 568.01 112.01 C 604.00 112.02 639.99 111.96 675.99 112.01 C 676.04 125.33 676.03 138.66 675.98 151.98 C 646.45 152.35 616.90 151.40 587.39 152.36 C 601.22 162.57 613.83 174.35 624.44 187.90 C 643.55 184.91 660.76 174.62 679.69 170.99 C 686.22 189.08 695.77 206.10 700.99 224.62 C 694.80 226.28 688.54 227.88 682.84 230.87 C 707.04 263.88 712.99 307.66 704.10 347.06 C 719.93 346.13 735.63 342.29 751.61 344.31 C 756.27 361.70 754.00 380.71 741.32 394.31 C 718.34 416.36 686.29 424.17 655.83 429.39 C 685.40 456.71 692.43 503.75 670.91 538.29 C 646.16 522.21 623.04 503.62 601.08 483.89 C 523.12 531.36 426.59 534.81 338.41 524.10 C 335.58 533.14 334.38 542.59 333.67 552.00 C 313.05 547.81 294.60 532.84 290.47 511.48 C 273.99 507.26 259.04 499.03 243.35 492.78 C 232.07 510.51 224.35 530.82 223.67 552.01 C 198.60 547.39 177.53 525.08 179.79 498.55 C 166.51 481.80 156.10 458.29 165.14 437.03 C 165.70 412.53 155.16 389.45 151.83 365.22 C 109.31 369.28 63.67 370.78 24.23 351.86 C 14.77 349.05 0.74 331.73 15.07 325.90 C 51.89 314.12 91.28 316.03 129.26 310.76 C 99.30 285.59 61.19 269.55 35.07 239.84 C 27.28 225.40 50.10 221.19 59.98 221.98 C 99.29 225.79 135.41 244.59 167.90 266.10 C 196.01 206.48 248.34 160.71 307.82 133.74 C 310.77 104.61 300.93 72.41 316.81 45.81 M 330.00 74.02 C 329.94 83.34 329.93 92.66 330.01 101.99 C 329.94 111.65 329.95 121.32 330.02 130.99 C 402.01 131.01 474.00 131.01 545.99 130.99 C 546.04 121.32 546.04 111.65 545.98 101.98 C 546.04 92.64 546.04 83.31 546.08 73.97 C 544.99 51.01 522.64 31.70 499.96 32.92 C 458.34 33.08 416.72 32.98 375.11 32.97 C 352.51 31.79 331.54 51.77 330.00 74.02 M 309.81 155.94 C 268.68 177.13 229.53 205.99 204.50 245.50 C 176.00 282.89 165.65 333.12 175.19 379.04 C 217.55 353.71 273.04 366.18 313.98 336.93 C 283.30 367.10 237.82 369.11 200.87 387.88 C 188.68 393.33 176.41 406.14 182.69 420.44 C 208.25 392.49 247.13 383.03 283.18 378.09 C 258.99 390.25 232.99 400.28 211.88 417.89 C 196.60 429.84 179.11 447.91 184.97 469.17 C 202.43 432.10 241.29 411.90 279.34 402.31 C 249.88 423.37 216.60 444.59 202.51 479.58 C 196.41 491.43 201.27 508.34 210.61 515.44 C 219.31 463.38 266.70 432.92 307.96 406.97 C 337.33 388.56 367.17 363.06 371.62 326.58 C 375.54 345.82 373.12 366.69 362.39 383.39 C 346.63 407.56 321.63 423.19 298.96 440.18 C 284.53 451.05 269.26 461.66 257.76 475.76 C 319.55 506.38 391.14 512.34 458.95 505.99 C 503.00 501.17 547.77 491.92 585.96 468.28 C 581.10 463.48 576.71 458.24 572.27 453.06 C 562.98 441.87 556.08 429.03 551.64 415.27 C 542.99 419.16 533.45 423.39 524.45 427.44 C 497.61 432.61 468.87 425.92 447.95 408.05 C 395.32 362.80 391.95 272.79 440.33 223.44 C 439.34 221.60 437.33 221.13 435.43 220.83 C 428.53 218.67 421.65 216.40 414.88 213.87 C 421.18 196.21 426.40 178.18 433.35 160.74 C 478.73 175.64 524.30 190.13 569.51 205.54 C 578.56 205.56 587.33 202.00 595.44 198.19 C 598.03 198.10 600.55 197.38 603.06 196.77 C 590.83 179.28 572.16 167.23 554.70 155.40 C 550.46 151.82 544.68 153.29 539.63 153.18 C 532.67 152.24 525.60 153.34 518.63 153.34 C 500.05 152.24 481.33 153.25 462.72 153.25 C 450.57 152.81 438.40 152.77 426.25 153.21 C 396.27 152.91 366.25 152.74 336.28 153.25 C 333.00 153.08 329.67 152.89 326.41 153.08 C 320.78 153.10 314.71 152.69 309.81 155.94 M 457.39 236.86 C 426.28 267.30 419.75 317.70 437.07 356.93 C 449.66 389.24 486.14 417.62 521.30 404.06 C 545.36 399.48 560.62 376.60 572.19 356.82 C 577.64 365.10 582.43 378.90 593.99 369.08 C 596.81 368.31 599.58 367.31 602.21 366.00 C 627.57 357.52 654.17 353.77 680.49 349.47 C 692.04 312.41 687.14 267.82 660.64 238.10 C 635.08 244.79 610.30 254.42 584.95 261.90 C 579.74 263.19 574.64 267.43 569.11 264.96 C 535.71 253.22 501.90 242.87 468.32 231.64 C 463.96 230.18 459.37 233.11 457.39 236.86 M 674.03 367.84 C 640.26 375.26 603.33 377.42 574.41 398.30 C 563.58 405.41 571.22 420.27 576.29 428.73 C 598.44 462.73 630.94 488.81 663.55 512.21 C 668.79 493.49 667.34 471.58 655.33 455.66 C 640.48 435.79 615.64 428.85 594.65 417.72 C 635.21 415.79 677.83 412.76 714.58 393.59 C 725.56 386.49 738.16 375.63 736.94 361.17 C 715.83 361.84 695.06 366.33 674.03 367.84 Z" />
<path fill="#ed7c31" opacity="1.00" d=" M 330.00 74.02 C 331.54 51.77 352.51 31.79 375.11 32.97 C 416.72 32.98 458.34 33.08 499.96 32.92 C 522.64 31.70 544.99 51.01 546.08 73.97 C 540.39 68.71 534.80 63.31 528.40 58.93 C 530.92 49.49 520.70 45.60 513.41 44.24 C 499.31 41.70 482.73 41.99 471.64 52.27 C 438.14 51.78 404.64 51.98 371.15 52.05 C 354.70 52.59 340.93 62.60 330.00 74.02 Z" />
<path fill="#ffffff" opacity="1.00" d=" M 471.64 52.27 C 482.73 41.99 499.31 41.70 513.41 44.24 C 520.70 45.60 530.92 49.49 528.40 58.93 C 513.07 69.61 491.10 70.06 474.86 61.12 C 471.76 59.43 472.62 55.04 471.64 52.27 Z" />
<path fill="#d6562b" opacity="1.00" d=" M 330.00 74.02 C 340.93 62.60 354.70 52.59 371.15 52.05 C 404.64 51.98 438.14 51.78 471.64 52.27 C 472.62 55.04 471.76 59.43 474.86 61.12 C 491.10 70.06 513.07 69.61 528.40 58.93 C 534.80 63.31 540.39 68.71 546.08 73.97 C 546.04 83.31 546.04 92.64 545.98 101.98 C 473.99 102.02 402.00 102.00 330.01 101.99 C 329.93 92.66 329.94 83.34 330.00 74.02 Z" />
<path fill="#b55232" opacity="1.00" d=" M 330.01 101.99 C 402.00 102.00 473.99 102.02 545.98 101.98 C 546.04 111.65 546.04 121.32 545.99 130.99 C 474.00 131.01 402.01 131.01 330.02 130.99 C 329.95 121.32 329.94 111.65 330.01 101.99 Z" />
<path fill="#e5d3bd" opacity="1.00" d=" M 309.81 155.94 C 314.71 152.69 320.78 153.10 326.41 153.08 C 321.75 154.63 317.36 156.86 312.99 159.06 C 320.89 157.72 328.52 155.23 336.28 153.25 C 366.25 152.74 396.27 152.91 426.25 153.21 C 344.76 159.03 267.66 194.75 204.50 245.50 C 229.53 205.99 268.68 177.13 309.81 155.94 Z" />
<path fill="#faf7f3" opacity="1.00" d=" M 326.41 153.08 C 329.67 152.89 333.00 153.08 336.28 153.25 C 328.52 155.23 320.89 157.72 312.99 159.06 C 317.36 156.86 321.75 154.63 326.41 153.08 Z" />
<path fill="#c7b29e" opacity="1.00" d=" M 426.25 153.21 C 438.40 152.77 450.57 152.81 462.72 153.25 C 510.07 155.70 556.38 171.30 595.44 198.19 C 587.33 202.00 578.56 205.56 569.51 205.54 C 524.30 190.13 478.73 175.64 433.35 160.74 C 426.40 178.18 421.18 196.21 414.88 213.87 C 421.65 216.40 428.53 218.67 435.43 220.83 C 387.76 274.67 386.57 365.66 434.25 419.75 C 456.08 446.18 498.62 450.87 524.45 427.44 C 533.45 423.39 542.99 419.16 551.64 415.27 C 556.08 429.03 562.98 441.87 572.27 453.06 C 551.51 465.42 527.82 472.28 504.09 476.21 C 464.46 486.49 436.24 441.56 397.14 446.43 C 386.35 448.71 377.42 456.53 366.23 457.25 C 341.71 460.06 324.01 432.24 298.96 440.18 C 321.63 423.19 346.63 407.56 362.39 383.39 C 373.12 366.69 375.54 345.82 371.62 326.58 C 367.17 363.06 337.33 388.56 307.96 406.97 C 266.70 432.92 219.31 463.38 210.61 515.44 C 201.27 508.34 196.41 491.43 202.51 479.58 C 216.60 444.59 249.88 423.37 279.34 402.31 C 241.29 411.90 202.43 432.10 184.97 469.17 C 179.11 447.91 196.60 429.84 211.88 417.89 C 232.99 400.28 258.99 390.25 283.18 378.09 C 247.13 383.03 208.25 392.49 182.69 420.44 C 176.41 406.14 188.68 393.33 200.87 387.88 C 237.82 369.11 283.30 367.10 313.98 336.93 C 273.04 366.18 217.55 353.71 175.19 379.04 C 165.65 333.12 176.00 282.89 204.50 245.50 C 267.66 194.75 344.76 159.03 426.25 153.21 M 344.11 183.31 C 337.05 190.89 350.14 196.53 356.50 195.69 C 367.48 195.55 386.83 194.09 387.66 179.64 C 374.80 171.06 355.51 173.69 344.11 183.31 M 295.39 207.54 C 305.11 209.29 323.16 205.49 321.65 192.35 C 311.87 190.34 293.60 194.29 295.39 207.54 M 381.79 195.41 C 376.85 195.20 369.11 201.73 375.29 205.73 C 383.39 209.66 400.82 212.21 404.08 201.16 C 400.07 193.27 388.93 195.01 381.79 195.41 M 321.92 213.01 C 327.52 222.59 349.06 216.08 351.57 205.37 C 342.81 199.23 326.06 202.75 321.92 213.01 M 371.38 394.39 C 364.64 397.46 368.62 408.10 375.40 408.05 C 387.71 408.63 403.16 403.38 409.21 392.29 C 396.77 392.74 383.24 389.59 371.38 394.39 M 418.85 406.20 C 406.16 414.08 384.37 418.29 382.06 435.26 C 403.09 447.45 421.27 426.88 418.85 406.20 Z" />
<path fill="#e5d3bd" opacity="1.00" d=" M 462.72 153.25 C 481.33 153.25 500.05 152.24 518.63 153.34 C 537.93 157.84 556.01 166.06 574.11 173.92 C 563.27 165.98 551.51 159.39 539.63 153.18 C 544.68 153.29 550.46 151.82 554.70 155.40 C 572.16 167.23 590.83 179.28 603.06 196.77 C 600.55 197.38 598.03 198.10 595.44 198.19 C 556.38 171.30 510.07 155.70 462.72 153.25 Z" />
<path fill="#ffffff" opacity="1.00" d=" M 518.63 153.34 C 525.60 153.34 532.67 152.24 539.63 153.18 C 551.51 159.39 563.27 165.98 574.11 173.92 C 556.01 166.06 537.93 157.84 518.63 153.34 Z" />
<path fill="#937963" opacity="1.00" d=" M 344.11 183.31 C 355.51 173.69 374.80 171.06 387.66 179.64 C 386.83 194.09 367.48 195.55 356.50 195.69 C 350.14 196.53 337.05 190.89 344.11 183.31 Z" />
<path fill="#937963" opacity="1.00" d=" M 295.39 207.54 C 293.60 194.29 311.87 190.34 321.65 192.35 C 323.16 205.49 305.11 209.29 295.39 207.54 Z" />
<path fill="#937963" opacity="1.00" d=" M 381.79 195.41 C 388.93 195.01 400.07 193.27 404.08 201.16 C 400.82 212.21 383.39 209.66 375.29 205.73 C 369.11 201.73 376.85 195.20 381.79 195.41 Z" />
<path fill="#937963" opacity="1.00" d=" M 321.92 213.01 C 326.06 202.75 342.81 199.23 351.57 205.37 C 349.06 216.08 327.52 222.59 321.92 213.01 Z" />
<path fill="#937963" opacity="1.00" d=" M 435.43 220.83 C 437.33 221.13 439.34 221.60 440.33 223.44 C 391.95 272.79 395.32 362.80 447.95 408.05 C 468.87 425.92 497.61 432.61 524.45 427.44 C 498.62 450.87 456.08 446.18 434.25 419.75 C 386.57 365.66 387.76 274.67 435.43 220.83 Z" />
<path fill="#ffffff" opacity="1.00" d=" M 457.39 236.86 C 459.37 233.11 463.96 230.18 468.32 231.64 C 501.90 242.87 535.71 253.22 569.11 264.96 C 574.64 267.43 579.74 263.19 584.95 261.90 C 610.30 254.42 635.08 244.79 660.64 238.10 C 687.14 267.82 692.04 312.41 680.49 349.47 C 654.17 353.77 627.57 357.52 602.21 366.00 C 600.47 365.40 598.78 364.70 597.09 364.02 C 596.05 365.70 595.01 367.39 593.99 369.08 C 582.43 378.90 577.64 365.10 572.19 356.82 C 560.62 376.60 545.36 399.48 521.30 404.06 C 476.56 398.58 446.70 353.77 443.57 311.30 C 439.61 285.51 447.28 260.23 457.39 236.86 M 535.27 285.15 C 519.21 300.13 519.70 330.07 535.26 345.19 C 553.05 353.88 559.30 328.20 559.08 315.32 C 554.30 314.69 549.53 314.09 544.74 313.60 C 548.06 308.91 552.04 304.71 555.36 300.04 C 557.32 290.09 544.75 277.57 535.27 285.15 M 647.89 289.90 C 639.28 305.66 638.44 328.42 651.46 341.98 C 665.22 345.53 667.87 324.42 668.12 314.37 C 664.79 313.60 661.36 312.97 658.02 312.37 C 663.96 303.55 668.82 293.21 657.49 285.75 C 654.30 286.61 649.52 286.24 647.89 289.90 Z" />
<path fill="#d0d2d3" opacity="1.00" d=" M 437.07 356.93 C 419.75 317.70 426.28 267.30 457.39 236.86 C 447.28 260.23 439.61 285.51 443.57 311.30 C 446.70 353.77 476.56 398.58 521.30 404.06 C 486.14 417.62 449.66 389.24 437.07 356.93 Z" />
<path fill="#000000" opacity="1.00" d=" M 535.27 285.15 C 544.75 277.57 557.32 290.09 555.36 300.04 C 552.04 304.71 548.06 308.91 544.74 313.60 C 549.53 314.09 554.30 314.69 559.08 315.32 C 559.30 328.20 553.05 353.88 535.26 345.19 C 519.70 330.07 519.21 300.13 535.27 285.15 Z" />
<path fill="#000000" opacity="1.00" d=" M 647.89 289.90 C 649.52 286.24 654.30 286.61 657.49 285.75 C 668.82 293.21 663.96 303.55 658.02 312.37 C 661.36 312.97 664.79 313.60 668.12 314.37 C 667.87 324.42 665.22 345.53 651.46 341.98 C 638.44 328.42 639.28 305.66 647.89 289.90 Z" />
<path fill="#faaf40" opacity="1.00" d=" M 674.03 367.84 C 695.06 366.33 715.83 361.84 736.94 361.17 C 738.16 375.63 725.56 386.49 714.58 393.59 C 677.83 412.76 635.21 415.79 594.65 417.72 C 615.64 428.85 640.48 435.79 655.33 455.66 C 667.34 471.58 668.79 493.49 663.55 512.21 C 630.94 488.81 598.44 462.73 576.29 428.73 C 571.22 420.27 563.58 405.41 574.41 398.30 C 603.33 377.42 640.26 375.26 674.03 367.84 Z" />
<path fill="#b0b1b2" opacity="1.00" d=" M 597.09 364.02 C 598.78 364.70 600.47 365.40 602.21 366.00 C 599.58 367.31 596.81 368.31 593.99 369.08 C 595.01 367.39 596.05 365.70 597.09 364.02 Z" />
<path fill="#937963" opacity="1.00" d=" M 371.38 394.39 C 383.24 389.59 396.77 392.74 409.21 392.29 C 403.16 403.38 387.71 408.63 375.40 408.05 C 368.62 408.10 364.64 397.46 371.38 394.39 Z" />
<path fill="#937963" opacity="1.00" d=" M 418.85 406.20 C 421.27 426.88 403.09 447.45 382.06 435.26 C 384.37 418.29 406.16 414.08 418.85 406.20 Z" />
<path fill="#937963" opacity="1.00" d=" M 298.96 440.18 C 324.01 432.24 341.71 460.06 366.23 457.25 C 377.42 456.53 386.35 448.71 397.14 446.43 C 436.24 441.56 464.46 486.49 504.09 476.21 C 527.82 472.28 551.51 465.42 572.27 453.06 C 576.71 458.24 581.10 463.48 585.96 468.28 C 547.77 491.92 503.00 501.17 458.95 505.99 C 391.14 512.34 319.55 506.38 257.76 475.76 C 269.26 461.66 284.53 451.05 298.96 440.18 Z" />
</svg>
